<?xml version="1.0" standalone="no"?>
<!DOCTYPE svg PUBLIC "-//W3C//DTD SVG 20010904//EN"
 "http://www.w3.org/TR/2001/REC-SVG-20010904/DTD/svg10.dtd">
<svg version="1.0" xmlns="http://www.w3.org/2000/svg"
 width="808.000000pt" height="808.000000pt" viewBox="0 0 808.000000 808.000000"
 preserveAspectRatio="xMidYMid meet">
<metadata>
Created by potrace 1.14, written by Peter Selinger 2001-2017
</metadata>
<g transform="translate(0.000000,808.000000) scale(0.100000,-0.100000)"
fill="#000000" stroke="none">
<path d="M3381 7885 c-18 -8 -43 -15 -54 -15 -31 0 -228 -50 -259 -66 -15 -8
-35 -14 -44 -14 -10 0 -25 -6 -33 -13 -9 -7 -38 -19 -66 -25 -27 -7 -67 -22
-88 -32 -21 -11 -42 -20 -47 -20 -13 0 -223 -122 -319 -186 -17 -12 -56 -44
-87 -73 -30 -29 -65 -56 -77 -60 -19 -8 -62 -38 -210 -148 -64 -47 -209 -201
-262 -277 -27 -40 -75 -104 -106 -142 -31 -39 -69 -92 -83 -119 -15 -28 -39
-71 -55 -96 -16 -25 -34 -63 -41 -85 -24 -75 -32 -94 -40 -94 -13 0 -29 -57
-23 -80 4 -13 -6 -39 -26 -71 -31 -51 -43 -95 -19 -71 7 7 18 12 25 12 21 0
15 -25 -12 -50 -14 -13 -25 -31 -25 -40 0 -15 -26 -66 -81 -158 -27 -45 -47
-210 -31 -247 9 -18 9 -32 2 -45 -16 -29 -29 -271 -16 -292 7 -13 6 -21 -6
-35 -47 -52 -78 -134 -93 -251 -9 -64 -20 -128 -26 -141 -6 -14 -14 -45 -19
-70 -12 -65 -101 -241 -191 -381 -9 -14 -26 -65 -37 -115 -55 -233 -55 -239
-57 -515 -1 -178 -5 -280 -14 -310 -18 -65 -6 -609 14 -669 3 -7 12 -10 21 -7
24 9 35 -3 24 -25 -6 -11 -16 -16 -22 -13 -8 5 -9 -1 -5 -17 4 -13 7 -31 7
-41 0 -11 6 -15 20 -11 12 3 21 0 24 -8 2 -8 12 -41 22 -74 10 -33 17 -75 15
-93 -2 -25 1 -32 16 -32 28 0 55 58 62 129 4 38 11 66 19 69 6 2 12 -3 12 -12
0 -23 19 -30 27 -9 3 10 13 26 21 36 8 9 12 20 9 24 -4 3 2 12 12 19 15 11 18
22 13 59 -2 25 2 92 11 148 9 56 23 167 32 247 19 172 33 277 45 345 5 28 16
95 26 150 29 165 72 364 86 392 27 56 42 42 73 -72 9 -33 23 -74 32 -92 9 -18
17 -47 19 -65 1 -18 10 -47 18 -63 9 -17 16 -40 16 -52 0 -12 8 -37 18 -55 19
-35 46 -129 62 -213 15 -82 32 -150 40 -155 15 -10 30 -50 30 -79 0 -20 4 -29
13 -26 7 3 18 -8 26 -26 10 -23 16 -28 22 -18 8 11 12 10 24 -5 8 -11 15 -25
15 -31 0 -17 28 -71 43 -84 9 -7 24 -8 47 -1 23 7 38 6 47 -1 15 -13 17 -55 3
-64 -5 -3 -10 -11 -10 -17 0 -5 15 -1 34 10 28 17 35 18 40 6 3 -8 13 -14 21
-14 12 0 15 -6 10 -20 -5 -14 -2 -20 9 -20 9 0 16 -4 16 -10 0 -5 -4 -10 -10
-10 -5 0 -10 -5 -10 -11 0 -5 5 -7 10 -4 5 3 10 -4 10 -16 0 -19 2 -20 16 -8
15 12 16 11 10 -9 -5 -14 -3 -29 6 -39 11 -15 11 -16 -5 -10 -11 4 -17 1 -17
-9 0 -8 7 -17 15 -20 9 -4 14 -18 13 -39 -1 -39 17 -67 41 -63 13 2 17 -8 19
-50 2 -28 8 -52 13 -52 5 0 9 -6 8 -12 -3 -17 17 -64 30 -73 6 -3 11 -19 11
-35 0 -22 -4 -28 -15 -24 -10 4 -15 0 -15 -11 0 -10 5 -13 12 -9 7 5 8 3 4 -5
-5 -7 1 -34 13 -60 11 -26 17 -57 14 -69 -3 -14 -1 -22 7 -22 9 0 11 -14 8
-50 -4 -38 -2 -50 8 -50 8 0 14 -8 14 -19 0 -10 3 -33 6 -50 4 -20 3 -31 -5
-31 -6 0 -11 7 -11 16 0 14 -2 14 -15 0 -8 -8 -15 -24 -15 -35 0 -12 -4 -21
-9 -21 -4 0 -11 -66 -14 -147 -3 -93 -12 -170 -22 -208 -10 -33 -19 -69 -21
-80 -6 -41 -13 -61 -33 -101 -27 -56 -92 -124 -118 -124 -11 0 -53 -15 -94
-34 -41 -19 -90 -37 -109 -40 -19 -4 -57 -16 -85 -28 -27 -11 -59 -24 -70 -28
-17 -7 -96 -25 -145 -34 -8 -2 -22 -6 -30 -9 -46 -17 -192 -26 -196 -12 -2 6
24 24 58 41 34 17 64 36 65 41 5 14 -197 26 -280 17 -37 -4 -67 -10 -67 -13 0
-11 290 -293 345 -337 28 -21 55 -44 60 -50 36 -39 285 -225 400 -299 149 -96
203 -124 198 -104 -7 24 5 24 29 2 17 -15 20 -15 29 -3 5 8 7 20 4 27 -2 7 0
15 5 18 6 4 10 -3 10 -15 0 -25 19 -23 32 3 4 9 12 25 17 34 5 10 18 17 30 16
12 -2 21 3 21 11 0 7 9 21 20 31 27 24 25 45 -2 46 l-23 0 23 11 c17 9 26 8
40 -5 10 -10 22 -14 25 -10 14 13 6 21 -28 27 -32 6 -50 26 -24 26 8 0 8 5 -1
15 -8 10 -9 19 -2 27 5 7 12 46 14 87 4 54 10 76 22 83 19 11 21 49 4 66 -9 9
-8 12 5 12 9 0 17 7 17 16 0 8 7 22 15 30 8 9 15 24 15 34 0 14 7 18 26 17 22
-2 27 3 29 26 2 15 0 27 -4 27 -9 0 -7 52 3 68 9 14 86 16 86 2 0 -13 36 -13
61 0 13 7 19 7 19 0 0 -5 -7 -10 -15 -10 -8 0 -15 -7 -15 -15 0 -8 7 -15 15
-15 8 0 15 7 15 15 0 8 5 15 11 15 8 0 8 4 0 14 -15 18 -63 28 -123 28 -27 0
-48 4 -48 9 0 5 11 9 25 9 14 0 28 7 31 15 8 20 24 19 24 -1 0 -15 2 -15 25 0
13 9 29 16 34 16 17 0 65 -54 66 -74 0 -29 22 -30 32 -2 l8 25 60 -50 c33 -27
64 -61 69 -75 4 -14 13 -23 20 -21 6 3 20 -1 31 -9 10 -8 26 -14 36 -14 9 0
36 -18 59 -39 29 -26 70 -49 119 -66 44 -16 82 -37 94 -51 10 -14 29 -24 43
-24 13 0 24 -6 24 -13 0 -17 32 -47 49 -47 7 0 27 -11 44 -24 31 -23 174 -63
185 -51 3 3 16 -5 28 -16 20 -19 31 -21 80 -16 33 3 66 1 77 -5 11 -5 47 -12
80 -14 34 -3 63 -6 65 -9 2 -2 22 6 44 17 24 13 56 21 80 20 26 -1 37 2 32 9
-4 7 3 10 17 8 13 -1 40 4 59 13 23 10 87 17 190 22 109 4 187 14 265 31 157
36 158 37 183 53 21 14 22 17 8 31 -12 12 -18 12 -28 3 -18 -18 -52 -14 -66 8
-10 16 -16 18 -32 10 -13 -7 -21 -7 -25 1 -4 5 -14 9 -23 7 -10 -2 -25 3 -35
12 -18 15 -68 21 -77 8 -3 -4 -18 4 -32 17 -15 14 -32 25 -38 25 -5 0 -10 5
-10 10 0 6 -6 10 -12 10 -7 0 -24 9 -38 20 -26 20 -70 27 -70 11 0 -5 -15 -8
-32 -7 -29 1 -33 5 -36 31 -4 51 -5 55 -13 55 -4 0 -12 -6 -16 -14 -9 -16 -63
-11 -63 6 0 16 -31 42 -38 32 -4 -5 -19 -15 -33 -21 -21 -9 -31 -9 -47 3 -20
14 -52 10 -52 -7 0 -5 -5 -9 -11 -9 -5 0 -7 5 -3 11 7 12 -25 9 -73 -6 -15 -5
-23 -3 -23 4 0 7 -11 24 -25 39 -19 20 -35 27 -67 27 -24 1 -55 9 -69 18 -14
10 -34 15 -43 11 -9 -3 -16 -1 -16 5 0 6 4 11 10 11 20 0 -2 26 -33 39 -47 21
-67 43 -67 76 0 8 -7 15 -15 15 -9 0 -15 -9 -15 -25 0 -29 -23 -33 -47 -10
-14 14 -14 18 3 36 17 19 17 20 -4 40 -12 11 -22 24 -22 29 0 6 -7 10 -15 10
-8 0 -15 -7 -15 -15 0 -8 -5 -15 -10 -15 -15 0 -24 28 -13 43 16 21 9 124 -10
145 -9 10 -17 28 -17 40 0 11 -11 30 -25 41 -21 16 -26 29 -28 73 -2 52 -3 53
-29 50 -16 -2 -28 0 -29 5 0 4 -1 38 -2 76 -3 64 -2 67 20 67 13 0 23 5 23 10
0 6 -13 10 -30 10 -16 0 -30 3 -30 8 1 24 20 30 95 28 l80 -1 -3 39 c-2 22
-14 66 -27 98 -21 52 -22 60 -9 73 33 33 52 37 74 15 17 -17 24 -19 36 -9 12
10 19 8 37 -8 12 -11 36 -27 52 -34 17 -8 34 -24 40 -36 5 -13 14 -22 20 -22
21 3 38 -1 32 -7 -3 -3 10 -19 29 -36 19 -17 34 -36 34 -44 0 -8 15 -20 33
-27 17 -8 47 -28 65 -45 18 -17 35 -31 38 -30 14 2 106 -56 123 -77 10 -14 27
-25 37 -25 24 0 104 -39 104 -51 0 -5 8 -9 18 -9 18 0 144 -47 177 -67 33 -19
8 -27 -37 -11 -24 9 -61 16 -82 17 -22 1 -56 10 -75 20 -86 44 -137 65 -150
63 -7 -2 -23 6 -35 17 -35 32 -96 33 -93 1 1 -11 4 -20 8 -20 4 0 11 -9 14
-20 3 -11 14 -20 24 -20 23 0 64 -48 57 -66 -3 -8 -1 -14 5 -14 5 0 35 -25 65
-55 47 -47 59 -54 84 -49 22 5 31 2 39 -15 8 -13 21 -21 38 -21 15 0 34 -6 42
-14 20 -17 77 -36 107 -36 12 0 24 -4 26 -9 5 -13 68 -25 68 -12 0 6 7 11 15
11 8 0 15 -7 15 -17 0 -15 2 -14 20 2 13 12 37 18 74 19 31 1 61 7 68 14 7 7
22 12 34 12 30 0 126 93 118 114 -7 19 -20 21 -27 4 -4 -8 -6 -7 -6 4 -1 9
-15 21 -33 27 -38 13 -28 29 22 36 34 4 81 32 87 52 2 6 -16 14 -39 18 -24 4
-50 9 -58 12 -8 2 -64 5 -123 8 -60 3 -116 9 -125 14 -9 4 -40 11 -68 14 -44
5 -170 58 -184 77 -3 4 -10 9 -17 11 -16 6 -79 56 -125 101 -21 21 -44 38 -51
38 -15 0 -68 80 -61 91 8 13 62 11 70 -2 3 -6 17 -8 32 -4 69 17 194 5 342
-35 19 -5 73 -12 120 -14 47 -3 90 -6 95 -7 10 -1 277 50 395 76 36 8 85 17
110 21 89 13 71 22 -61 29 -90 4 -143 3 -163 -4 -22 -9 -190 -16 -264 -12 -7
1 -22 17 -34 37 -19 32 -24 35 -53 30 -18 -4 -45 -1 -61 5 -16 7 -45 11 -65
10 -21 -1 -40 2 -43 8 -4 6 -15 7 -30 1 -13 -4 -42 -6 -65 -3 -34 5 -45 11
-54 32 -6 14 -15 29 -20 32 -9 6 117 22 165 21 15 -1 30 3 33 8 10 16 44 11
64 -9 19 -19 20 -19 41 1 16 15 29 19 56 14 21 -4 34 -3 34 4 0 5 6 10 13 10
19 0 53 31 60 55 6 18 -1 22 -66 38 -88 21 -384 25 -420 5 -12 -6 -31 -13 -42
-14 -11 -2 -48 -7 -83 -12 -59 -8 -266 -6 -407 4 -148 10 -214 13 -269 13 -46
0 -61 4 -72 19 -13 19 -14 19 -60 -3 -35 -17 -50 -32 -65 -64 -21 -48 -32 -47
-49 4 -6 19 -15 35 -19 35 -16 0 -19 81 -6 113 8 18 14 28 15 22 0 -5 8 5 17
23 9 18 26 35 39 38 28 7 32 24 7 24 -15 0 -15 2 -4 9 22 14 37 3 36 -26 0
-34 22 -41 34 -11 9 23 18 29 91 61 37 17 105 84 122 122 18 40 4 55 -52 55
-36 0 -50 -4 -50 -14 0 -7 -23 -25 -52 -39 -40 -20 -55 -23 -66 -15 -10 9 -16
8 -22 -2 -5 -8 -7 -17 -4 -21 6 -11 -21 -18 -36 -9 -7 5 -29 6 -48 3 -19 -3
-37 -1 -41 4 -9 14 -71 25 -71 13 0 -18 -22 -10 -27 10 -3 11 -12 20 -19 20
-8 0 -14 11 -15 28 -1 16 -3 20 -6 10 -11 -43 -67 0 -100 75 -7 15 -23 31 -36
36 -15 6 -28 24 -37 53 -8 23 -27 54 -42 68 -16 13 -28 28 -28 33 0 4 -9 17
-20 29 -12 13 -20 36 -20 55 0 29 2 32 18 24 10 -5 24 -9 32 -9 8 1 28 0 44 0
25 -2 27 -5 22 -27 -8 -30 6 -60 35 -76 37 -19 46 6 13 35 -16 14 -23 26 -16
27 16 2 24 4 42 13 9 3 47 0 85 -8 103 -22 241 -31 249 -17 4 6 -3 15 -18 21
-16 6 -24 15 -20 24 3 8 1 17 -5 20 -5 3 -86 13 -180 21 -93 8 -182 20 -196
25 -40 15 -63 12 -85 -10 l-21 -21 -14 35 c-8 19 -18 36 -23 38 -22 8 -63 117
-77 201 -9 51 -21 122 -27 158 -6 37 -9 93 -6 125 7 83 -6 121 -49 146 -33 20
-34 23 -18 34 10 7 23 15 28 17 20 6 -2 37 -28 37 -14 0 -25 4 -25 9 0 5 20 6
44 4 25 -3 46 -1 50 5 3 6 13 55 21 109 20 141 32 173 76 214 43 40 43 39 29
90 -7 26 -19 40 -40 49 -16 6 -33 9 -39 6 -5 -4 -12 -2 -16 4 -4 6 6 10 25 10
17 0 41 7 53 14 34 23 102 23 127 1 11 -10 20 -24 20 -30 0 -7 9 -24 20 -38
26 -33 26 -33 -12 -52 -18 -8 -59 -39 -91 -68 l-59 -52 -1 -87 c-1 -49 -5 -88
-9 -88 -5 0 -8 -16 -8 -35 0 -29 4 -36 25 -41 14 -3 32 -3 42 0 9 4 31 1 50
-5 30 -10 36 -9 54 12 15 18 17 25 7 32 -9 6 -4 7 12 3 14 -3 35 -6 48 -6 13
0 20 -4 17 -10 -3 -5 -2 -10 3 -10 14 0 25 34 13 38 -6 2 -11 8 -11 14 0 6 7
5 16 -3 13 -10 17 -10 23 0 7 10 13 10 29 2 11 -6 34 -11 51 -11 17 0 31 -3
31 -7 0 -5 26 -7 57 -7 50 1 85 -8 133 -35 59 -33 248 -78 276 -66 10 4 22 8
26 7 4 -1 12 7 18 19 9 16 19 19 58 17 l47 -3 35 73 c32 66 37 72 60 67 14 -3
37 -15 52 -25 15 -11 32 -20 38 -20 13 0 13 -17 0 -25 -22 -14 -8 -21 36 -19
25 2 52 8 60 15 11 9 14 8 14 -5 0 -13 11 -16 50 -16 42 0 50 3 50 18 0 20
-35 62 -51 62 -5 0 -17 16 -26 35 -9 19 -20 35 -24 35 -4 0 -10 11 -13 25 -4
16 -13 25 -26 25 -20 0 -36 17 -26 27 3 3 14 0 23 -8 15 -11 15 -10 -1 9 -11
13 -26 20 -35 17 -10 -3 -23 4 -31 15 -8 11 -22 20 -31 20 -13 0 -79 52 -79
63 0 1 49 0 109 -1 117 -4 151 5 151 39 0 11 -10 30 -22 42 -21 20 -42 25
-203 40 -99 9 -208 19 -242 21 -34 3 -71 9 -81 15 -14 8 -28 6 -54 -8 l-35
-17 67 -18 c37 -9 71 -16 76 -15 21 4 26 -2 14 -16 -14 -17 0 -21 16 -5 13 13
44 2 44 -15 0 -33 -41 -37 -212 -20 -82 8 -90 15 -68 56 6 10 17 19 25 19 8 0
15 6 15 14 0 13 22 28 44 30 5 1 11 6 13 12 5 14 -51 38 -69 31 -7 -3 -2 -6
12 -6 18 -1 21 -4 12 -13 -9 -9 -17 -7 -35 10 -13 12 -28 22 -34 22 -6 0 -13
6 -16 14 -4 9 -14 12 -26 9 -33 -9 -78 15 -86 45 -4 15 -9 22 -12 15 -9 -24
-75 18 -71 44 2 9 -13 20 -40 29 -38 13 -44 13 -58 -1 -21 -20 -33 -19 -55 6
-12 14 -31 21 -58 22 -42 2 -58 17 -18 17 21 1 21 1 3 15 -18 14 -18 15 13 28
18 8 41 26 51 41 17 27 47 49 83 62 10 4 16 12 13 19 -6 17 23 29 38 16 7 -6
18 -4 30 4 13 10 33 12 62 8 30 -4 44 -2 44 6 0 14 47 14 56 0 4 -7 22 -9 45
-6 22 3 42 1 45 -5 3 -5 16 -7 29 -4 13 3 41 -4 71 -19 36 -18 58 -23 82 -19
19 4 38 1 46 -5 11 -10 17 -8 25 6 9 17 11 17 25 -2 9 -11 18 -36 22 -56 9
-51 15 -58 54 -60 21 -2 42 -11 51 -22 17 -21 39 -16 39 9 0 8 8 14 18 14 14
0 15 -2 2 -10 -8 -5 -12 -10 -10 -12 30 -19 71 -38 83 -38 19 0 105 -38 112
-50 3 -6 15 -10 26 -10 14 0 18 4 12 13 -4 6 -8 26 -9 42 -2 52 -4 55 -23 55
-12 0 -21 9 -25 25 -4 14 -12 24 -19 22 -8 -1 -12 12 -13 40 -1 29 -9 51 -27
72 -14 17 -29 40 -32 51 -4 11 -11 18 -16 15 -5 -4 -9 -2 -9 4 0 17 -61 81
-77 81 -8 0 -17 -9 -20 -20 -6 -21 -28 -27 -38 -10 -14 22 -80 42 -122 36 -47
-6 -103 12 -81 26 7 4 28 8 46 8 22 0 32 5 32 15 0 8 -7 15 -15 15 -8 0 -25
12 -38 26 l-22 26 -5 -23 c-8 -32 -28 -35 -39 -7 -9 24 -41 57 -41 43 0 -5 -8
-1 -18 8 -10 10 -22 14 -25 10 -4 -3 -7 -1 -7 6 0 8 -11 10 -34 6 -52 -10 -96
26 -96 77 0 21 5 38 10 38 6 0 10 9 10 20 0 13 7 20 20 20 13 0 20 7 20 20 0
11 -5 20 -12 20 -9 0 -9 3 0 12 9 9 15 9 24 0 18 -18 28 -15 28 8 0 21 15 27
25 10 3 -5 10 -10 15 -10 12 0 1 30 -17 48 -17 17 -17 36 0 29 8 -3 20 -1 28
4 10 6 10 9 2 9 -27 0 -11 17 27 30 l39 13 -4 61 c-4 59 -3 62 28 82 36 24 65
93 44 106 -8 5 -3 14 13 28 13 11 35 44 49 74 16 31 31 51 39 48 7 -2 24 4 38
13 14 9 28 14 31 11 9 -9 43 14 43 28 0 22 -30 41 -61 38 -32 -4 -34 -1 -20
26 6 9 13 34 16 55 6 39 25 52 25 16 0 -30 25 -17 25 13 1 30 21 58 41 58 8 0
14 5 14 10 0 6 5 10 10 10 18 0 70 43 70 57 0 8 7 16 15 19 8 4 15 17 15 30 0
27 2 28 50 14 30 -9 37 -7 62 17 15 15 28 36 28 48 0 11 5 26 12 33 15 15 84
16 93 1 5 -6 13 -3 22 10 15 22 47 28 58 11 8 -13 45 -13 45 0 0 10 62 24 94
22 11 0 24 -8 28 -17 10 -16 63 -21 72 -6 10 15 76 18 87 4 8 -9 17 -10 29 -3
9 5 20 7 23 3 4 -3 9 2 13 11 9 22 24 20 24 -4 0 -28 36 -26 51 3 15 27 28 37
53 37 11 0 31 14 46 32 21 25 31 30 52 25 14 -4 28 -16 31 -28 5 -18 11 -21
35 -16 22 5 32 1 47 -19 10 -13 23 -24 29 -24 6 0 31 -29 55 -65 24 -36 47
-65 50 -65 9 0 60 -48 99 -94 36 -41 52 -42 34 -1 -6 14 -9 32 -6 40 5 12 11
11 34 -8 32 -25 38 -52 14 -61 -25 -10 -7 -21 33 -21 30 0 36 -4 39 -23 2 -13
29 -49 60 -80 84 -86 85 -88 78 -106 -4 -11 -1 -16 10 -16 9 0 16 5 16 10 0 6
5 10 10 10 6 0 10 -7 10 -15 0 -9 10 -19 23 -24 12 -5 32 -21 44 -35 13 -14
28 -26 34 -26 6 0 9 -6 7 -12 -3 -7 6 -24 19 -38 23 -25 31 -74 13 -85 -11 -7
-13 -54 -4 -79 8 -20 22 -20 43 -2 9 7 27 17 41 21 24 7 24 6 -7 -27 -33 -34
-42 -58 -22 -58 5 0 7 5 3 11 -4 7 1 10 12 7 11 -2 24 -18 30 -37 6 -19 18
-39 27 -46 10 -7 14 -20 10 -33 -6 -24 6 -29 25 -10 9 9 15 9 25 -1 10 -10 7
-16 -15 -33 -36 -25 -38 -53 -4 -44 19 5 25 1 29 -17 5 -27 1 -111 -8 -155 -6
-29 -4 -34 14 -39 12 -3 21 -13 21 -25 0 -10 -4 -16 -10 -13 -5 3 -10 2 -10
-3 0 -14 61 -72 76 -72 19 0 18 -57 -1 -76 -8 -9 -15 -22 -15 -30 0 -20 26
-18 34 3 6 15 10 13 31 -12 13 -17 24 -34 25 -39 0 -5 7 -18 16 -28 14 -15 15
-20 4 -34 -11 -12 -28 -14 -87 -10 -40 3 -73 1 -73 -3 0 -14 -32 -22 -44 -11
-16 12 -87 -6 -103 -27 -7 -9 -27 -18 -44 -20 -17 -2 -43 -12 -58 -22 -25 -18
-81 -24 -81 -8 0 4 5 7 11 7 5 0 7 5 4 11 -5 7 -11 5 -18 -4 -10 -13 -50 -28
-82 -31 -20 -3 -104 -61 -105 -73 0 -20 -62 -74 -78 -68 -11 4 -13 -1 -7 -22
9 -36 12 -38 30 -23 13 10 15 9 15 -8 0 -18 3 -19 25 -9 15 7 23 18 20 26 -4
9 0 11 11 7 8 -3 17 -6 18 -6 2 0 1 -11 -2 -25 -5 -31 25 -70 42 -56 7 6 17 6
26 1 19 -12 60 -13 60 -1 0 4 26 11 58 14 32 4 84 13 115 21 58 15 127 11 127
-7 0 -6 4 -6 13 0 6 6 41 13 77 17 59 5 66 4 78 -15 11 -17 11 -23 2 -29 -20
-12 6 -21 32 -11 12 6 17 10 11 10 -14 1 -18 31 -5 31 16 0 32 -25 32 -50 0
-23 -4 -26 -35 -27 -19 -1 -35 3 -35 7 0 16 -45 19 -74 5 -36 -19 -36 -19 -36
1 0 26 -60 9 -87 -24 -26 -32 -28 -51 -8 -98 18 -45 13 -54 -31 -54 -42 0 -47
-27 -6 -36 62 -13 97 -30 97 -48 0 -14 -10 -18 -55 -21 -30 -2 -72 -7 -92 -10
l-38 -7 0 51 c0 45 -3 51 -24 57 -29 7 -227 -12 -273 -27 -17 -5 -34 -17 -37
-26 -8 -19 40 -93 60 -93 8 0 14 -8 14 -17 0 -9 -3 -13 -6 -10 -4 4 -19 -2
-34 -13 -16 -11 -31 -20 -35 -20 -9 0 -55 -48 -86 -90 -24 -33 -62 -102 -57
-104 2 -1 14 -7 26 -14 28 -16 40 -9 23 12 -18 21 -5 36 30 36 16 0 29 4 29 9
0 5 6 11 14 14 18 7 47 -34 50 -71 2 -19 12 -32 37 -43 61 -30 103 -42 154
-44 28 -1 62 -7 77 -13 25 -10 27 -9 37 21 5 18 15 58 21 89 15 75 42 110 78
101 43 -10 72 -33 72 -57 0 -25 -46 -71 -103 -106 -21 -12 -36 -25 -33 -27 3
-3 1 -14 -5 -24 -14 -27 15 -25 71 5 25 13 61 27 80 31 19 4 51 16 70 26 19
11 44 19 56 19 12 0 43 15 70 33 35 24 50 41 57 67 5 19 13 40 18 46 6 7 4 32
-5 65 -11 44 -17 54 -35 55 -13 1 -30 9 -39 18 -16 16 -16 18 1 31 11 8 60 16
118 21 116 8 151 28 69 39 -27 4 -50 9 -50 12 0 2 13 16 30 29 17 15 32 39 36
60 3 18 10 32 14 29 5 -3 11 4 15 15 3 11 11 20 16 20 19 0 161 -75 166 -87 8
-21 -17 -43 -51 -44 -27 -1 -25 -2 13 -10 65 -13 75 -29 19 -29 -26 0 -53 -3
-62 -6 -14 -5 -14 -8 0 -21 19 -20 17 -21 -35 -25 -26 -2 -47 -9 -52 -18 -19
-36 -39 -133 -49 -234 -10 -109 -56 -315 -86 -384 -21 -48 -24 -333 -4 -357
22 -27 34 -16 70 65 19 44 45 87 58 95 12 9 22 26 22 38 0 13 4 27 8 32 5 6
14 35 21 65 8 30 20 62 27 71 9 9 12 24 8 34 -5 12 -4 16 4 11 14 -9 32 24 32
61 1 15 7 39 15 53 17 30 19 70 4 70 -7 0 -9 8 -4 23 15 49 45 225 45 265 0
24 5 52 10 63 11 19 44 26 54 11 10 -17 -16 -254 -40 -357 -26 -112 -34 -140
-79 -279 -14 -43 -24 -80 -22 -82 2 -2 22 22 45 53 28 38 45 74 52 112 7 31
16 74 22 96 6 22 13 60 15 84 3 24 16 59 29 79 28 41 33 72 9 52 -24 -20 -19
25 5 48 12 11 23 39 27 72 10 64 33 81 33 23 -1 -41 -16 -186 -28 -271 -9 -57
2 -79 18 -37 34 91 59 290 40 326 -16 29 -61 68 -80 69 -9 0 -3 7 12 16 41 21
53 50 32 72 -16 15 -16 17 -1 20 8 2 34 -3 57 -11 36 -12 40 -16 28 -28 -32
-32 -29 -64 8 -107 34 -40 35 -44 39 -139 3 -54 5 -108 5 -120 0 -16 8 -25 26
-29 25 -6 26 -9 21 -55 -3 -27 -15 -69 -26 -94 -16 -37 -26 -47 -52 -52 -27
-5 -35 -15 -58 -67 -15 -34 -42 -107 -61 -163 -34 -101 -35 -103 -17 -133 10
-16 15 -36 11 -43 -6 -9 -4 -9 8 1 8 7 18 33 21 58 2 25 12 53 21 62 15 15 16
14 16 -14 0 -17 -4 -44 -9 -60 -5 -16 -12 -49 -15 -74 -3 -25 -9 -59 -14 -75
-9 -29 -8 -31 16 -30 21 0 31 11 56 60 17 33 34 62 38 63 5 2 18 25 30 50 11
26 37 81 57 122 20 41 45 102 55 135 10 33 22 65 27 70 12 15 39 132 49 206 9
69 39 183 46 176 3 -2 0 -44 -7 -93 -6 -49 -14 -127 -18 -174 -4 -47 -11 -91
-15 -98 -4 -7 -4 -22 0 -34 6 -21 6 -21 20 3 7 13 13 32 14 42 0 10 10 36 23
58 21 39 22 40 3 54 -16 12 -17 17 -6 30 7 9 19 14 26 11 17 -6 41 47 49 109
4 28 15 84 26 125 14 59 16 84 8 119 -8 36 -7 48 10 76 33 57 44 232 15 248
-8 4 -14 19 -14 32 0 26 15 34 23 13 14 -35 4 174 -14 287 -11 72 -25 157 -30
190 -14 94 -48 246 -64 290 -8 22 -22 76 -30 120 -20 112 -73 323 -92 365 -23
53 -63 197 -63 228 0 37 -34 123 -54 137 -11 8 -16 27 -16 58 0 26 -8 61 -18
79 -10 18 -26 54 -36 80 -9 25 -24 52 -32 58 -7 7 -14 20 -14 30 0 16 -37 100
-61 140 -5 8 -17 31 -25 50 -9 19 -19 37 -23 40 -3 3 -17 26 -30 53 -13 26
-28 47 -32 47 -5 0 -9 11 -9 24 0 21 -5 24 -27 23 -23 -2 -28 3 -34 31 -4 19
-19 46 -33 61 -14 15 -26 32 -26 37 0 6 -9 19 -20 29 -12 10 -19 24 -16 31 3
7 -4 14 -15 17 -10 3 -19 3 -19 1 0 -9 25 -49 35 -56 5 -4 2 -10 -9 -14 -13
-5 -29 4 -59 35 l-42 41 23 15 c17 12 19 20 12 33 -6 9 -14 29 -20 45 -5 15
-14 27 -19 27 -6 0 -8 -6 -6 -12 3 -7 1 -20 -4 -28 -9 -12 -12 -12 -28 2 -10
8 -31 18 -46 22 -20 5 -27 11 -23 21 4 11 -2 15 -19 15 -18 0 -31 10 -45 33
-31 50 -27 54 39 36 8 -2 17 4 19 14 2 9 -2 17 -9 17 -14 0 -80 42 -115 73
-25 21 -74 50 -121 72 -39 18 -43 35 -8 35 14 0 25 4 25 8 0 11 -110 82 -128
82 -8 0 -48 18 -88 41 -41 22 -74 36 -74 30 0 -16 -31 -13 -50 4 -9 8 -39 16
-66 18 -27 2 -60 9 -73 16 -30 16 -157 17 -226 0 -27 -6 -70 -12 -95 -14 -127
-8 -249 -25 -281 -39 -32 -13 -69 -18 -133 -16 -11 1 -23 -5 -28 -12 -6 -10
-10 -10 -18 2 -8 12 -13 13 -30 3 -25 -16 -42 -16 -75 -1 -15 7 -24 17 -21 25
9 22 -42 16 -54 -7 -12 -22 -35 -25 -72 -11 -31 11 -117 33 -148 36 -14 2 -60
6 -103 9 -43 4 -90 12 -105 18 -60 23 -208 53 -322 63 -144 14 -166 14 -199 0z
m2519 -445 c0 -11 -7 -20 -15 -20 -15 0 -21 21 -8 33 12 13 23 7 23 -13z
m-1433 -697 c5 -15 -40 -28 -64 -18 -16 6 -15 8 7 21 29 16 52 15 57 -3z m983
-531 c0 -8 -1 -13 -3 -11 -1 2 -9 12 -16 22 -12 15 -12 17 3 11 9 -3 16 -13
16 -22z m165 -262 c3 -5 1 -10 -4 -10 -6 0 -11 5 -11 10 0 6 2 10 4 10 3 0 8
-4 11 -10z m-2490 -376 c-9 -9 -19 -13 -23 -10 -3 4 0 11 8 16 24 15 33 11 15
-6z m75 -253 c0 -16 -18 -22 -45 -15 -37 9 -31 24 10 24 19 0 35 -4 35 -9z
m3098 -49 c45 -95 56 -164 56 -367 1 -161 -5 -195 -35 -195 -27 0 -87 32 -136
72 -34 29 -38 37 -30 56 8 18 6 25 -8 36 -16 11 -16 16 -4 52 14 39 28 56 40
49 3 -3 13 3 21 13 18 20 29 99 28 188 -1 56 23 145 39 144 3 -1 16 -22 29
-48z m-2568 -253 c0 -11 -4 -17 -10 -14 -5 3 -10 13 -10 21 0 8 5 14 10 14 6
0 10 -9 10 -21z m3050 -126 c0 -57 -5 -53 -14 11 -5 33 -4 46 3 41 6 -3 11
-27 11 -52z m149 -20 c-1 -34 -2 -35 -9 -13 -11 36 -11 50 0 50 6 0 10 -17 9
-37z m-5119 -12 c14 -27 13 -33 -7 -29 -9 2 -18 13 -19 26 -5 27 12 29 26 3z
m3513 4 c-6 -17 -25 -15 -31 3 -2 7 5 12 17 12 14 0 19 -5 14 -15z m1547 -45
c0 -16 -4 -32 -10 -35 -6 -4 -10 10 -10 35 0 25 4 39 10 35 6 -3 10 -19 10
-35z m-4990 -5 c16 -19 0 -19 -26 0 -16 12 -16 14 -3 15 9 0 22 -7 29 -15z
m4180 -115 c0 -5 -4 -10 -10 -10 -5 0 -10 5 -10 10 0 6 5 10 10 10 6 0 10 -4
10 -10z m-4076 -25 c3 -8 1 -15 -3 -15 -5 0 -11 7 -15 15 -3 8 -1 15 3 15 5 0
11 -7 15 -15z m4085 -7 c-1 -7 1 -21 6 -31 4 -10 2 -23 -5 -32 -26 -32 -42 16
-18 55 15 23 20 25 17 8z m-2999 -142 c0 -2 -9 -6 -20 -9 -11 -3 -20 -1 -20 4
0 5 9 9 20 9 11 0 20 -2 20 -4z m480 -37 c3 -4 19 -11 35 -15 59 -14 205 -128
205 -159 0 -15 -28 -7 -92 26 -10 5 -27 9 -38 9 -11 0 -23 7 -26 15 -4 8 -15
15 -25 15 -10 0 -19 3 -19 8 0 4 -9 13 -21 20 -16 10 -24 10 -35 1 -17 -14
-44 -5 -44 16 0 13 -6 15 -30 10 -25 -6 -30 -4 -30 13 0 11 -10 27 -22 36 -13
9 -17 14 -10 11 6 -3 12 -1 12 5 0 13 131 3 140 -11z m2093 -105 c-7 -3 -13
-10 -13 -15 0 -6 -9 -19 -20 -31 l-20 -22 0 27 c0 34 -13 34 -34 2 -22 -33
-54 -32 -66 1 -6 14 -8 29 -5 34 2 4 42 8 87 8 46 1 77 -1 71 -4z m-173 -12
c0 -5 -9 -20 -21 -33 -20 -23 -21 -24 -35 -5 -15 22 -10 31 21 39 32 8 35 7
35 -1z m-97 -42 c-7 -28 -15 -31 -52 -20 -26 7 -31 6 -31 -8 0 -12 -3 -13 -11
-5 -13 13 -4 33 15 33 8 0 26 7 42 14 33 18 44 13 37 -14z m357 0 c0 -14 -9
-12 -26 4 -20 21 -17 28 6 16 11 -6 20 -15 20 -20z m-2289 -25 c0 -5 -12 -11
-26 -13 -18 -2 -25 1 -25 13 0 12 7 15 25 13 14 -2 26 -7 26 -13z m2991 -57
c-7 -7 -12 -8 -12 -2 0 14 12 26 19 19 2 -3 -1 -11 -7 -17z m-225 -30 c-3 -7
-5 -2 -5 12 0 14 2 19 5 13 2 -7 2 -19 0 -25z m-792 -8 c3 -5 -6 -12 -20 -16
-29 -7 -41 -1 -30 15 8 14 42 14 50 1z m-4465 -247 c0 -5 -5 -15 -10 -23 -8
-12 -10 -11 -10 8 0 12 5 22 10 22 6 0 10 -3 10 -7z m836 -598 c4 -8 0 -22 -7
-31 -12 -14 -14 -14 -25 1 -7 9 -10 23 -7 31 7 19 32 18 39 -1z m1274 -635 c0
-5 -4 -10 -10 -10 -5 0 -10 5 -10 10 0 6 5 10 10 10 6 0 10 -4 10 -10z m-180
-382 c0 20 14 14 26 -12 9 -20 9 -26 -3 -30 -21 -8 -23 -8 -23 9 0 8 -11 17
-25 21 -28 7 -27 6 -18 29 5 15 8 15 24 -6 10 -13 19 -18 19 -11z m1220 12 c0
-5 -4 -10 -10 -10 -5 0 -10 5 -10 10 0 6 5 10 10 10 6 0 10 -4 10 -10z m-613
-96 c-3 -3 -12 -4 -19 -1 -8 3 -5 6 6 6 11 1 17 -2 13 -5z m-367 -211 c0 -15
-16 -17 -25 -3 -3 5 -8 20 -10 31 -4 21 -4 21 15 4 11 -10 20 -24 20 -32z
m-610 -663 c0 -4 -7 -10 -15 -14 -11 -4 -15 2 -15 21 0 21 2 24 15 13 8 -7 15
-16 15 -20z m1750 -331 c0 -5 -4 -9 -10 -9 -5 0 -10 7 -10 16 0 8 5 12 10 9 6
-3 10 -10 10 -16z"/>
<path d="M6165 7260 c3 -5 8 -10 11 -10 2 0 4 5 4 10 0 6 -5 10 -11 10 -5 0
-7 -4 -4 -10z"/>
<path d="M4241 6644 c0 -11 3 -14 6 -6 3 7 2 16 -1 19 -3 4 -6 -2 -5 -13z"/>
<path d="M4216 6543 c-7 -18 17 -43 41 -43 16 0 17 32 1 48 -17 17 -35 15 -42
-5z"/>
<path d="M3622 6308 c5 -15 28 -18 29 -3 0 6 -7 12 -17 13 -10 3 -15 -1 -12
-10z"/>
<path d="M5696 5632 c-2 -4 -1 -14 3 -21 6 -10 10 -9 14 3 6 16 -8 32 -17 18z"/>
<path d="M3445 5350 c3 -5 11 -10 16 -10 6 0 7 5 4 10 -3 6 -11 10 -16 10 -6
0 -7 -4 -4 -10z"/>
<path d="M5790 5284 c0 -8 5 -12 10 -9 6 3 10 10 10 16 0 5 -4 9 -10 9 -5 0
-10 -7 -10 -16z"/>
<path d="M3861 5143 c12 -21 33 -51 46 -66 26 -32 27 -36 14 -69 -8 -21 -6
-24 18 -23 23 0 26 4 27 35 1 40 -21 90 -39 90 -7 0 -25 16 -41 35 -39 46 -54
45 -25 -2z"/>
<path d="M3800 5146 c0 -2 9 -6 20 -9 11 -3 20 -1 20 4 0 5 -9 9 -20 9 -11 0
-20 -2 -20 -4z"/>
<path d="M3680 4891 c0 -10 30 -24 37 -17 3 2 -5 9 -16 16 -12 6 -21 7 -21 1z"/>
<path d="M3940 4880 c0 -5 9 -10 21 -10 11 0 17 5 14 10 -3 6 -13 10 -21 10
-8 0 -14 -4 -14 -10z"/>
<path d="M3945 4850 c-4 -6 6 -10 24 -10 39 0 48 15 11 18 -16 1 -31 -2 -35
-8z"/>
<path d="M4120 4849 c0 -5 5 -7 10 -4 6 3 10 8 10 11 0 2 -4 4 -10 4 -5 0 -10
-5 -10 -11z"/>
<path d="M4035 4547 c4 -21 3 -37 -4 -41 -25 -16 -9 -28 79 -58 14 -5 48 -13
75 -18 28 -4 57 -11 66 -15 18 -7 59 29 59 52 0 7 -12 26 -27 43 -29 32 -93
52 -206 67 l-48 6 6 -36z m230 -55 c-3 -3 -11 0 -18 7 -9 10 -8 11 6 5 10 -3
15 -9 12 -12z"/>
<path d="M4962 4358 c-21 -13 -50 -21 -75 -20 -63 1 -200 -29 -213 -46 -14
-19 -108 -10 -134 13 -9 8 -32 16 -51 19 -19 2 -34 8 -34 14 0 6 -3 14 -7 18
-5 4 -8 0 -8 -8 0 -9 -9 -22 -20 -29 -20 -13 -20 -18 -9 -89 14 -95 25 -122
54 -150 23 -22 25 -22 60 -6 30 15 51 16 150 8 108 -8 118 -11 145 -37 17 -16
30 -39 30 -52 0 -27 28 -42 41 -22 5 8 9 29 9 47 0 18 11 54 24 80 13 26 26
59 29 73 4 15 23 49 42 77 34 50 42 82 29 116 -8 21 -21 19 -62 -6z m-84 -49
c-5 -16 -74 -38 -89 -28 -9 5 -3 10 17 14 16 3 36 10 44 15 21 12 32 12 28 -1z"/>
<path d="M6080 4150 c-6 -11 -7 -20 -2 -20 6 0 12 9 15 20 3 11 3 20 1 20 -2
0 -8 -9 -14 -20z"/>
<path d="M2545 4120 c3 -5 8 -10 11 -10 2 0 4 5 4 10 0 6 -5 10 -11 10 -5 0
-7 -4 -4 -10z"/>
<path d="M4160 3983 c-55 -65 -112 -217 -96 -258 5 -14 0 -45 -20 -127 -5 -22
-3 -28 10 -28 9 0 16 6 16 13 0 24 35 55 68 60 36 6 37 2 20 -40 -15 -34 -20
-40 -118 -143 -57 -58 -86 -81 -115 -89 -205 -53 -205 -53 -435 -58 -242 -4
-270 -7 -270 -25 0 -6 -7 -19 -16 -29 -15 -17 -15 -18 7 -23 13 -3 114 -7 223
-11 162 -4 203 -8 217 -21 13 -12 22 -13 36 -5 17 10 17 10 -2 12 -11 1 3 5
30 8 67 8 95 2 95 -18 0 -10 8 -26 18 -37 10 -10 21 -27 24 -36 4 -9 20 -25
35 -35 15 -10 36 -25 47 -35 49 -45 136 -87 219 -107 95 -23 106 -21 145 24
14 16 29 24 38 21 9 -3 27 -6 40 -6 23 0 25 -3 22 -41 -1 -30 3 -44 15 -51 10
-5 26 -19 37 -31 11 -12 35 -23 53 -25 17 -2 34 -7 37 -11 3 -4 17 -11 31 -14
29 -7 41 7 33 40 -3 10 2 32 11 48 15 29 15 29 21 8 4 -13 10 -24 15 -24 26
-5 34 -3 34 9 0 6 4 11 10 10 5 -2 9 -6 8 -10 -2 -5 3 -8 10 -8 19 0 78 60 71
72 -3 5 -27 9 -53 8 -68 -3 -68 -3 -91 35 -12 19 -26 35 -32 35 -6 0 -23 12
-37 28 -14 15 -39 34 -56 42 -16 8 -32 17 -35 20 -17 17 -54 30 -71 25 -22 -7
-24 -17 -8 -48 7 -12 8 -19 4 -15 -5 4 -14 3 -21 -3 -9 -7 -19 -6 -37 6 -21
13 -37 14 -116 5 -50 -6 -110 -17 -134 -25 -55 -19 -86 -19 -119 3 -73 48 -90
121 -38 165 16 14 48 33 70 43 22 10 40 21 40 25 0 4 11 10 25 13 14 4 25 11
25 16 0 5 13 4 31 -2 21 -7 33 -7 38 0 12 20 61 19 61 -1 0 -18 48 -39 71 -32
21 7 26 31 7 37 -9 3 -9 6 0 12 7 4 12 2 12 -3 0 -6 4 -11 9 -11 5 0 8 15 7
33 -3 40 20 97 45 115 13 9 19 25 19 51 0 21 3 41 7 45 14 14 13 83 -2 96 -22
18 -19 40 11 84 15 21 29 55 31 75 3 20 9 40 14 45 12 13 11 56 -1 56 -5 0
-19 -9 -31 -21 -22 -22 -59 -18 -59 7 0 38 -34 -2 -95 -111 -33 -58 -82 -112
-92 -101 -4 4 -2 16 5 26 7 11 12 41 12 67 1 27 8 66 16 88 24 60 28 93 14
110 -19 23 -35 18 -70 -22z"/>
<path d="M2531 3984 c0 -11 3 -14 6 -6 3 7 2 16 -1 19 -3 4 -6 -2 -5 -13z"/>
<path d="M6020 3975 c0 -8 2 -15 4 -15 2 0 6 7 10 15 3 8 1 15 -4 15 -6 0 -10
-7 -10 -15z"/>
<path d="M2542 3944 c-18 -19 -15 -24 13 -24 28 0 31 6 12 24 -10 11 -15 11
-25 0z"/>
<path d="M6440 3925 c0 -8 -4 -23 -9 -33 -17 -33 -33 -94 -26 -100 20 -21 77
110 60 139 -9 14 -25 11 -25 -6z"/>
<path d="M2530 3887 c0 -16 6 -23 20 -23 23 0 23 1 10 27 -14 26 -30 24 -30
-4z"/>
<path d="M4870 3860 c-6 -11 -17 -20 -24 -20 -8 0 -21 -10 -29 -23 -14 -22
-13 -27 10 -72 27 -54 68 -112 152 -217 71 -89 85 -91 56 -7 -9 24 -25 80 -36
124 -19 76 -28 104 -66 195 -18 44 -45 53 -63 20z"/>
<path d="M2530 3839 c0 -5 5 -7 10 -4 6 3 10 8 10 11 0 2 -4 4 -10 4 -5 0 -10
-5 -10 -11z"/>
<path d="M2551 3806 c-17 -20 -20 -72 -8 -116 6 -19 9 -45 8 -57 -1 -13 1 -23
6 -23 4 0 19 -18 32 -40 29 -47 69 -67 100 -50 28 14 27 23 -1 15 -17 -5 -19
-4 -9 4 12 7 12 13 3 24 -7 8 -10 27 -6 46 4 20 3 31 -5 31 -6 0 -11 -6 -12
-12 0 -7 -4 -4 -9 7 -8 18 -9 18 -10 -5 0 -23 -2 -22 -22 13 -13 21 -30 37
-40 37 -26 0 -22 18 5 23 l22 4 -22 8 c-28 9 -29 17 -3 33 24 15 25 21 2 50
-16 21 -20 22 -31 8z"/>
<path d="M6396 3765 c-9 -26 -7 -32 5 -12 6 10 9 21 6 23 -2 3 -7 -2 -11 -11z"/>
<path d="M6407 3383 c-3 -10 -8 -35 -12 -55 -3 -21 -17 -62 -30 -93 -14 -31
-25 -64 -25 -75 0 -11 -5 -20 -11 -20 -6 0 -8 -7 -5 -16 5 -14 4 -15 -9 -4
-17 14 -17 12 22 139 25 81 25 85 7 98 -25 18 -65 16 -121 -6 -26 -10 -100
-24 -163 -30 -63 -6 -133 -14 -155 -18 -22 -3 -119 -7 -215 -8 -96 -2 -187 -8
-202 -14 -33 -12 -117 -7 -171 13 -23 8 -75 24 -115 36 -40 13 -75 27 -78 31
-8 13 -44 11 -44 -3 0 -6 29 -41 64 -78 47 -49 66 -76 71 -104 6 -30 11 -37
26 -33 13 4 19 0 19 -12 0 -26 7 -29 44 -17 32 10 34 12 30 48 l-5 38 58 2
c32 1 96 0 143 -1 91 -2 190 9 365 41 61 11 136 22 168 25 l57 5 0 -39 c0
-103 -37 -254 -117 -473 -19 -52 -55 -151 -80 -220 -25 -69 -60 -152 -77 -186
-36 -66 -52 -122 -31 -104 7 6 16 22 19 35 4 14 11 25 16 25 16 0 11 -43 -9
-84 -11 -21 -17 -44 -14 -51 18 -49 157 140 263 361 10 22 28 48 39 58 15 14
17 22 9 44 -9 23 -6 37 16 79 14 29 26 59 26 68 0 26 41 139 56 155 12 12 14
9 14 -23 0 -20 4 -37 9 -37 13 0 41 75 41 110 0 16 4 31 9 34 4 3 18 36 31 73
12 37 26 73 31 79 20 25 59 106 59 123 0 9 4 21 9 27 5 5 12 24 16 42 6 29 5
32 -19 32 -15 0 -27 -7 -29 -17z m-97 -292 c0 -20 -27 -48 -37 -37 -3 3 -2 6
4 6 6 0 8 11 5 25 -3 18 0 25 12 25 9 0 16 -8 16 -19z m-20 -107 c0 -8 -5 -12
-10 -9 -6 4 -8 11 -5 16 9 14 15 11 15 -7z"/>
<path d="M5025 3046 c-35 -15 -74 -55 -42 -43 10 4 24 7 30 7 18 1 61 36 51
43 -5 3 -23 0 -39 -7z"/>
<path d="M4640 2821 c0 -5 5 -13 10 -16 6 -3 10 -2 10 4 0 5 -4 13 -10 16 -5
3 -10 2 -10 -4z"/>
<path d="M5403 2490 c-12 -31 -41 -48 -103 -59 -28 -5 -38 -14 -53 -46 -11
-22 -31 -52 -45 -68 -43 -45 -3 -63 84 -36 55 16 69 3 77 -73 3 -32 8 -62 12
-68 10 -17 45 12 66 55 11 22 23 47 28 55 27 47 34 77 34 145 -1 89 -18 125
-61 125 -21 0 -30 -7 -39 -30z"/>
<path d="M2192 2130 c0 -14 2 -19 5 -12 2 6 2 18 0 25 -3 6 -5 1 -5 -13z"/>
<path d="M3247 1873 c-9 -9 13 -44 24 -38 5 4 9 1 9 -6 0 -10 3 -10 11 -2 17
17 7 46 -17 49 -12 2 -24 1 -27 -3z"/>
<path d="M2637 1266 c-6 -16 2 -28 14 -20 12 7 11 34 0 34 -5 0 -11 -6 -14
-14z"/>
<path d="M2320 1075 c0 -8 4 -15 10 -15 5 0 7 7 4 15 -4 8 -8 15 -10 15 -2 0
-4 -7 -4 -15z"/>
<path d="M5060 482 c0 -4 22 -34 50 -67 61 -72 83 -132 70 -195 -4 -25 -7 -47
-5 -49 3 -3 166 48 174 55 2 1 -13 17 -33 35 -21 17 -44 48 -52 68 -15 35 -70
101 -86 101 -4 0 -30 14 -56 30 -52 31 -62 35 -62 22z"/>
</g>
</svg>
